<svg width="20" height="20" viewBox="0 0 20 20" fill="none" xmlns="http://www.w3.org/2000/svg">
<rect width="20" height="20" rx="2" fill="#1A1A1A"/>
<path d="M9.14286 12.8571C9.14286 11.9143 9.14286 11.4429 8.84996 11.15C8.55707 10.8571 8.08567 10.8571 7.14286 10.8571H4.85714C4.38376 10.8571 4 10.4734 4 10C4 9.52661 4.38376 9.14286 4.85714 9.14286H7.14286C8.08567 9.14286 8.55707 9.14286 8.84996 8.84996C9.14286 8.55707 9.14286 8.08567 9.14286 7.14286V4.85714C9.14286 4.38376 9.52661 4 10 4C10.4734 4 10.8571 4.38376 10.8571 4.85714V7.14286C10.8571 8.08567 10.8571 8.55707 11.15 8.84996C11.4429 9.14286 11.9143 9.14286 12.8571 9.14286H15.1429C15.6162 9.14286 16 9.52661 16 10C16 10.4734 15.6162 10.8571 15.1429 10.8571H12.8571C11.9143 10.8571 11.4429 10.8571 11.15 11.15C10.8571 11.4429 10.8571 11.9143 10.8571 12.8571V15.1429C10.8571 15.6162 10.4734 16 10 16C9.52661 16 9.14286 15.6162 9.14286 15.1429V12.8571Z" fill="white"/>
</svg>
