<svg width="157" height="38" viewBox="0 0 157 38" fill="none" xmlns="http://www.w3.org/2000/svg">
<path d="M20.1065 1.32861C20.1065 1.32861 12.3596 1.32861 9.4785 1.32861C6.59736 1.32861 2.6367 3.45422 1.83959 7.97114C1.04249 12.4881 1.28333 22.9168 1.83959 25.2417C2.39585 27.5666 4.43043 31.0207 9.4785 31.5521C14.5266 32.0835 60.2935 31.7735 82.546 31.5521C82.546 31.5521 82.546 21.9204 82.546 20.2598C82.546 18.5992 81.2175 16.2743 77.232 16.2743C74.0557 16.2743 48.5905 16.2743 28.7415 16.2743M28.7415 16.2743C23.6839 16.2743 18.991 16.2743 15.1243 16.2743C15.2349 14.7244 15.1243 11.9567 17.7813 11.6245C20.4384 11.2924 30.7343 11.2924 28.7415 16.2743ZM27.7451 14.6137H16.785L17.7813 12.953L25.3126 13.6173" stroke="#D9D0C7" stroke-width="2.65701"/>
<path d="M97.7029 21.6475C96.6684 21.6475 95.7367 21.4809 94.9077 21.1479C94.0858 20.8078 93.4021 20.3296 92.8565 19.7132C92.318 19.0967 91.9567 18.3669 91.7724 17.5238L92.6652 17.3537C92.9415 18.4024 93.5296 19.2313 94.4295 19.8407C95.3293 20.45 96.4204 20.7547 97.7029 20.7547C98.5957 20.7547 99.375 20.613 100.041 20.3296C100.707 20.0462 101.224 19.6494 101.593 19.1392C101.961 18.622 102.145 18.0197 102.145 17.3325C102.145 16.8152 102.05 16.383 101.858 16.0358C101.667 15.6887 101.423 15.4088 101.125 15.1962C100.835 14.9766 100.53 14.803 100.211 14.6755C99.8923 14.5479 99.6089 14.4487 99.3609 14.3779L95.5348 13.23C94.9821 13.0671 94.5039 12.8687 94.1 12.6349C93.7032 12.4011 93.3773 12.1354 93.1222 11.8378C92.8671 11.5402 92.6758 11.2143 92.5483 10.86C92.4278 10.5057 92.3676 10.1267 92.3676 9.72279C92.3676 8.9434 92.5766 8.25258 92.9947 7.65032C93.4198 7.04098 94.0079 6.56626 94.7589 6.22616C95.51 5.87898 96.3779 5.70539 97.3628 5.70539C98.3618 5.70539 99.2581 5.88961 100.052 6.25805C100.845 6.62649 101.494 7.14726 101.997 7.82037C102.507 8.48639 102.826 9.26933 102.953 10.1692L102.06 10.3392C101.961 9.59525 101.699 8.9434 101.274 8.38366C100.849 7.81683 100.3 7.37753 99.6266 7.06578C98.9535 6.75402 98.1989 6.59815 97.3628 6.59815C96.5622 6.59815 95.8572 6.73631 95.2478 7.01264C94.6456 7.28897 94.1744 7.66095 93.8343 8.12858C93.4942 8.59622 93.3241 9.12053 93.3241 9.70153C93.3241 10.3109 93.4871 10.7998 93.813 11.1682C94.146 11.5296 94.5499 11.813 95.0246 12.0184C95.4993 12.2168 95.9528 12.3798 96.385 12.5073L99.5522 13.4639C99.8214 13.5418 100.151 13.6587 100.541 13.8146C100.93 13.9634 101.313 14.1795 101.688 14.4629C102.071 14.7463 102.386 15.1218 102.634 15.5895C102.889 16.05 103.017 16.631 103.017 17.3325C103.017 17.9914 102.893 18.5866 102.645 19.118C102.397 19.6494 102.039 20.1028 101.572 20.4784C101.104 20.8539 100.544 21.1409 99.8923 21.3392C99.2404 21.5447 98.5106 21.6475 97.7029 21.6475ZM115.003 21.3286V6.91699H109.391V6.02423H121.507V6.91699H115.895V21.3286H115.003ZM127.253 21.3286L132.822 6.02423H133.778L139.347 21.3286H138.391L132.971 6.4281H133.608L128.209 21.3286H127.253ZM129.378 17.3537V16.5035H137.201V17.3537H129.378ZM149.121 21.3286V14.8243L144.041 6.02423H145.061L149.567 13.804L154.052 6.02423H155.073L150.014 14.8243V21.3286H149.121Z" fill="white"/>
<path d="M91.1969 32.5117V25.8161H93.7356C94.058 25.8161 94.3556 25.8858 94.6284 26.0253C94.9012 26.1617 95.1197 26.3539 95.284 26.6019C95.4483 26.8498 95.5305 27.1366 95.5305 27.4621C95.5305 27.8155 95.4282 28.1409 95.2236 28.4385C95.019 28.733 94.7493 28.9407 94.4145 29.0616L94.3959 28.8384C94.8392 28.981 95.1941 29.2104 95.4607 29.5266C95.7304 29.8397 95.8652 30.2333 95.8652 30.7076C95.8652 31.0889 95.7784 31.4144 95.6048 31.6841C95.4313 31.9506 95.1957 32.1552 94.8981 32.2978C94.6036 32.4404 94.275 32.5117 93.9123 32.5117H91.1969ZM91.5874 32.1211H93.7263C94.0487 32.1211 94.3386 32.0669 94.5958 31.9584C94.8562 31.8499 95.0608 31.6934 95.2096 31.4888C95.3615 31.2842 95.4375 31.0362 95.4375 30.7448C95.4375 30.4534 95.3677 30.1899 95.2282 29.9543C95.0918 29.7157 94.9074 29.5266 94.6749 29.3871C94.4455 29.2445 94.1913 29.1732 93.9123 29.1732H91.5874V32.1211ZM91.5874 28.7919H93.7356C93.9867 28.7919 94.2161 28.7315 94.4238 28.6106C94.6346 28.4897 94.802 28.3269 94.926 28.1223C95.05 27.9177 95.112 27.6884 95.112 27.4342C95.112 27.0622 94.9787 26.7631 94.7121 26.5368C94.4486 26.3105 94.1231 26.1973 93.7356 26.1973H91.5874V28.7919ZM98.8 32.6512C98.3258 32.6512 97.9166 32.5443 97.5725 32.3304C97.2315 32.1165 96.968 31.8112 96.782 31.4144C96.596 31.0176 96.5031 30.5464 96.5031 30.0008C96.5031 29.4522 96.5945 28.9794 96.7774 28.5827C96.9634 28.1859 97.2269 27.8821 97.5678 27.6713C97.9119 27.4574 98.3227 27.3505 98.8 27.3505C99.2805 27.3505 99.6912 27.459 100.032 27.676C100.373 27.8929 100.634 28.2076 100.813 28.6199C100.996 29.0321 101.088 29.5297 101.088 30.1124H100.669V29.9822C100.651 29.26 100.48 28.7067 100.158 28.3223C99.8385 27.9348 99.3859 27.7411 98.8 27.7411C98.2049 27.7411 97.743 27.9394 97.4144 28.3362C97.0858 28.7299 96.9215 29.2848 96.9215 30.0008C96.9215 30.7169 97.0858 31.2733 97.4144 31.6701C97.743 32.0638 98.2049 32.2606 98.8 32.2606C99.2154 32.2606 99.5796 32.163 99.8927 31.9677C100.206 31.7724 100.455 31.4919 100.641 31.1261L100.967 31.3121C100.762 31.7399 100.472 32.07 100.097 32.3025C99.7222 32.535 99.2898 32.6512 98.8 32.6512ZM96.7541 30.1124V29.7219H100.846V30.1124H96.7541ZM104.019 32.6512C103.545 32.6512 103.145 32.535 102.82 32.3025C102.497 32.0669 102.252 31.7492 102.085 31.3493C101.918 30.9463 101.834 30.4937 101.834 29.9915C101.834 29.4987 101.916 29.0523 102.08 28.6524C102.245 28.2525 102.483 27.9363 102.796 27.7039C103.113 27.4683 103.495 27.3505 103.945 27.3505C104.413 27.3505 104.807 27.4652 105.126 27.6946C105.448 27.9208 105.692 28.2339 105.856 28.6338C106.02 29.0306 106.102 29.4832 106.102 29.9915C106.102 30.4906 106.02 30.9416 105.856 31.3446C105.695 31.7445 105.459 32.0622 105.149 32.2978C104.839 32.5334 104.463 32.6512 104.019 32.6512ZM104.019 32.2606C104.413 32.2606 104.742 32.1614 105.005 31.963C105.272 31.7647 105.472 31.495 105.605 31.154C105.738 30.8099 105.805 30.4224 105.805 29.9915C105.805 29.5545 105.737 29.167 105.6 28.8291C105.467 28.4881 105.267 28.2215 105 28.0293C104.737 27.8372 104.41 27.7411 104.019 27.7411C103.619 27.7411 103.288 27.8403 103.024 28.0386C102.764 28.2339 102.57 28.5021 102.443 28.8431C102.316 29.1809 102.252 29.5638 102.252 29.9915C102.252 30.4224 102.319 30.8099 102.452 31.154C102.586 31.495 102.782 31.7647 103.043 31.963C103.306 32.1614 103.632 32.2606 104.019 32.2606ZM105.805 32.5117V28.5594H105.777V25.8161H106.168V32.5117H105.805ZM111.444 32.6512C111.069 32.6512 110.726 32.5985 110.416 32.4931C110.109 32.3877 109.85 32.2234 109.64 32.0002C109.482 31.8329 109.362 31.6407 109.282 31.4237C109.201 31.2067 109.156 30.9804 109.147 30.7448C109.144 30.5247 109.175 30.3015 109.24 30.0752C109.308 29.849 109.416 29.6475 109.565 29.4708C109.674 29.3344 109.798 29.2228 109.937 29.136C110.08 29.0492 110.226 28.9779 110.374 28.9221C110.111 28.6555 109.908 28.4153 109.765 28.2014C109.626 27.9844 109.556 27.7132 109.556 27.3877C109.556 27.0715 109.632 26.7801 109.784 26.5135C109.936 26.2438 110.148 26.0392 110.421 25.8997C110.579 25.8192 110.742 25.7618 110.909 25.7277C111.08 25.6936 111.248 25.6766 111.416 25.6766C111.639 25.6766 111.862 25.7045 112.085 25.7603C112.309 25.8161 112.501 25.9028 112.662 26.0206C112.774 26.095 112.874 26.1865 112.964 26.295C113.054 26.4004 113.127 26.5135 113.183 26.6344L112.82 26.8018C112.74 26.6158 112.609 26.4608 112.43 26.3368C112.296 26.2438 112.144 26.1756 111.974 26.1322C111.803 26.0888 111.63 26.0671 111.453 26.0671C111.146 26.0671 110.864 26.1291 110.607 26.2531C110.399 26.3585 110.241 26.5089 110.133 26.7042C110.027 26.8963 109.974 27.118 109.974 27.3691C109.974 27.583 110.007 27.7612 110.072 27.9038C110.137 28.0433 110.241 28.1998 110.384 28.3734C110.458 28.4571 110.539 28.5377 110.625 28.6152C110.712 28.6896 110.799 28.7671 110.886 28.8477L113.294 31.0889C113.313 30.9866 113.325 30.892 113.332 30.8053C113.338 30.7154 113.341 30.6239 113.341 30.5309L113.332 29.4429H113.75V30.3449C113.75 30.6425 113.738 30.8688 113.713 31.0238C113.691 31.1788 113.663 31.3059 113.629 31.4051L114.513 32.2234L114.243 32.5117L113.443 31.7585C113.375 31.8824 113.274 32.0018 113.141 32.1165C113.008 32.2281 112.876 32.3195 112.746 32.3908C112.557 32.4931 112.349 32.5613 112.123 32.5954C111.899 32.6326 111.673 32.6512 111.444 32.6512ZM111.425 32.2606C111.655 32.2606 111.861 32.2467 112.044 32.2188C112.226 32.1878 112.399 32.1242 112.56 32.0281C112.755 31.9072 112.893 31.7988 112.974 31.7027C113.054 31.6066 113.115 31.526 113.155 31.4609L110.709 29.229C110.548 29.2755 110.394 29.3406 110.249 29.4243C110.106 29.508 109.984 29.6103 109.881 29.7312C109.77 29.8644 109.688 30.0194 109.635 30.1961C109.585 30.3697 109.562 30.5495 109.565 30.7355C109.571 30.9215 109.602 31.0997 109.658 31.2702C109.717 31.4376 109.807 31.5849 109.928 31.712C110.095 31.901 110.314 32.0405 110.584 32.1304C110.856 32.2172 111.137 32.2606 111.425 32.2606ZM117.143 32.5117V25.8161H119.682C120.004 25.8161 120.302 25.8858 120.574 26.0253C120.847 26.1617 121.066 26.3539 121.23 26.6019C121.394 26.8498 121.477 27.1366 121.477 27.4621C121.477 27.8155 121.374 28.1409 121.17 28.4385C120.965 28.733 120.695 28.9407 120.361 29.0616L120.342 28.8384C120.785 28.981 121.14 29.2104 121.407 29.5266C121.676 29.8397 121.811 30.2333 121.811 30.7076C121.811 31.0889 121.725 31.4144 121.551 31.6841C121.377 31.9506 121.142 32.1552 120.844 32.2978C120.55 32.4404 120.221 32.5117 119.858 32.5117H117.143ZM117.534 32.1211H119.672C119.995 32.1211 120.285 32.0669 120.542 31.9584C120.802 31.8499 121.007 31.6934 121.156 31.4888C121.308 31.2842 121.384 31.0362 121.384 30.7448C121.384 30.4534 121.314 30.1899 121.174 29.9543C121.038 29.7157 120.853 29.5266 120.621 29.3871C120.392 29.2445 120.137 29.1732 119.858 29.1732H117.534V32.1211ZM117.534 28.7919H119.682C119.933 28.7919 120.162 28.7315 120.37 28.6106C120.581 28.4897 120.748 28.3269 120.872 28.1223C120.996 27.9177 121.058 27.6884 121.058 27.4342C121.058 27.0622 120.925 26.7631 120.658 26.5368C120.395 26.3105 120.069 26.1973 119.682 26.1973H117.534V28.7919ZM122.728 32.5117V27.49H123.091V28.6896L122.97 28.5315C123.023 28.3951 123.089 28.268 123.17 28.1502C123.25 28.0324 123.329 27.9363 123.407 27.8619C123.543 27.7287 123.705 27.6279 123.891 27.5597C124.08 27.4884 124.269 27.4481 124.458 27.4388C124.647 27.4264 124.814 27.4435 124.96 27.49V27.8619C124.752 27.8155 124.532 27.8077 124.3 27.8387C124.067 27.8666 123.85 27.9735 123.649 28.1595C123.472 28.3238 123.347 28.5129 123.272 28.7268C123.201 28.9407 123.157 29.1623 123.142 29.3917C123.126 29.618 123.119 29.8335 123.119 30.038V32.5117H122.728ZM127.77 32.6512C127.296 32.6512 126.887 32.5443 126.543 32.3304C126.202 32.1165 125.938 31.8112 125.752 31.4144C125.566 31.0176 125.473 30.5464 125.473 30.0008C125.473 29.4522 125.565 28.9794 125.748 28.5827C125.934 28.1859 126.197 27.8821 126.538 27.6713C126.882 27.4574 127.293 27.3505 127.77 27.3505C128.251 27.3505 128.661 27.459 129.002 27.676C129.343 27.8929 129.604 28.2076 129.784 28.6199C129.967 29.0321 130.058 29.5297 130.058 30.1124H129.639V29.9822C129.621 29.26 129.45 28.7067 129.128 28.3223C128.809 27.9348 128.356 27.7411 127.77 27.7411C127.175 27.7411 126.713 27.9394 126.385 28.3362C126.056 28.7299 125.892 29.2848 125.892 30.0008C125.892 30.7169 126.056 31.2733 126.385 31.6701C126.713 32.0638 127.175 32.2606 127.77 32.2606C128.186 32.2606 128.55 32.163 128.863 31.9677C129.176 31.7724 129.426 31.4919 129.612 31.1261L129.937 31.3121C129.732 31.7399 129.443 32.07 129.068 32.3025C128.692 32.535 128.26 32.6512 127.77 32.6512ZM125.724 30.1124V29.7219H129.816V30.1124H125.724ZM132.452 32.6512C132.062 32.6512 131.738 32.583 131.481 32.4466C131.223 32.3102 131.031 32.1304 130.904 31.9072C130.777 31.6841 130.713 31.4423 130.713 31.1819C130.713 30.8874 130.777 30.6441 130.904 30.4519C131.034 30.2566 131.203 30.1031 131.411 29.9915C131.619 29.8799 131.842 29.7994 132.08 29.7498C132.372 29.6909 132.683 29.6397 133.015 29.5963C133.35 29.5498 133.658 29.5111 133.94 29.4801C134.222 29.4491 134.433 29.4243 134.573 29.4057L134.433 29.4987C134.449 28.9066 134.34 28.4664 134.108 28.1781C133.878 27.8867 133.472 27.7411 132.889 27.7411C132.468 27.7411 132.128 27.8356 131.871 28.0247C131.617 28.2107 131.439 28.4974 131.336 28.8849L130.909 28.7733C131.02 28.3083 131.248 27.9549 131.592 27.7132C131.939 27.4714 132.378 27.3505 132.908 27.3505C133.373 27.3505 133.761 27.445 134.071 27.6341C134.38 27.8232 134.591 28.0789 134.703 28.4013C134.746 28.5253 134.777 28.6757 134.796 28.8524C134.814 29.029 134.824 29.2011 134.824 29.3685V32.5117H134.461V31.1354L134.647 31.1447C134.514 31.6221 134.249 31.9925 133.852 32.256C133.455 32.5195 132.989 32.6512 132.452 32.6512ZM132.434 32.2606C132.796 32.2606 133.116 32.1955 133.392 32.0653C133.671 31.9351 133.895 31.7476 134.066 31.5027C134.239 31.2547 134.349 30.9587 134.396 30.6146C134.421 30.441 134.433 30.255 134.433 30.0566C134.433 29.8583 134.433 29.7157 134.433 29.6289L134.638 29.787C134.473 29.8025 134.246 29.8242 133.954 29.8521C133.666 29.8768 133.361 29.9109 133.038 29.9543C132.716 29.9946 132.424 30.0473 132.164 30.1124C132.012 30.1496 131.856 30.2085 131.694 30.2891C131.533 30.3697 131.397 30.4829 131.285 30.6286C131.177 30.7743 131.123 30.9618 131.123 31.1912C131.123 31.3524 131.163 31.5151 131.243 31.6794C131.324 31.8437 131.459 31.9816 131.648 32.0932C131.84 32.2048 132.102 32.2606 132.434 32.2606ZM136.033 32.5117V25.8161H136.423V29.9078L138.934 27.49H139.52L136.897 30.0008L139.92 32.5117H139.25L136.423 30.0938V32.5117H136.033ZM140.922 32.5117V26.9227C140.922 26.7925 140.93 26.6732 140.945 26.5647C140.964 26.4531 140.995 26.3508 141.038 26.2578C141.082 26.1648 141.142 26.0764 141.22 25.9927C141.294 25.9152 141.376 25.8532 141.466 25.8068C141.559 25.7603 141.661 25.7277 141.773 25.7091C141.885 25.6874 142.007 25.6766 142.14 25.6766H142.791V26.0299H142.187C141.895 26.0299 141.677 26.0997 141.531 26.2392C141.386 26.3787 141.313 26.6189 141.313 26.9599V32.5117H140.922ZM140.011 27.8805V27.49H142.791V27.8805H140.011ZM144.858 32.6512C144.467 32.6512 144.143 32.583 143.886 32.4466C143.629 32.3102 143.437 32.1304 143.309 31.9072C143.182 31.6841 143.119 31.4423 143.119 31.1819C143.119 30.8874 143.182 30.6441 143.309 30.4519C143.44 30.2566 143.609 30.1031 143.816 29.9915C144.024 29.8799 144.247 29.7994 144.486 29.7498C144.777 29.6909 145.089 29.6397 145.42 29.5963C145.755 29.5498 146.064 29.5111 146.346 29.4801C146.628 29.4491 146.839 29.4243 146.978 29.4057L146.839 29.4987C146.854 28.9066 146.746 28.4664 146.513 28.1781C146.284 27.8867 145.878 27.7411 145.295 27.7411C144.873 27.7411 144.534 27.8356 144.277 28.0247C144.022 28.2107 143.844 28.4974 143.742 28.8849L143.314 28.7733C143.426 28.3083 143.654 27.9549 143.998 27.7132C144.345 27.4714 144.783 27.3505 145.313 27.3505C145.778 27.3505 146.166 27.445 146.476 27.6341C146.786 27.8232 146.997 28.0789 147.108 28.4013C147.152 28.5253 147.183 28.6757 147.201 28.8524C147.22 29.029 147.229 29.2011 147.229 29.3685V32.5117H146.867V31.1354L147.053 31.1447C146.919 31.6221 146.654 31.9925 146.257 32.256C145.861 32.5195 145.394 32.6512 144.858 32.6512ZM144.839 32.2606C145.202 32.2606 145.521 32.1955 145.797 32.0653C146.076 31.9351 146.301 31.7476 146.471 31.5027C146.645 31.2547 146.755 30.9587 146.801 30.6146C146.826 30.441 146.839 30.255 146.839 30.0566C146.839 29.8583 146.839 29.7157 146.839 29.6289L147.043 29.787C146.879 29.8025 146.651 29.8242 146.36 29.8521C146.071 29.8768 145.766 29.9109 145.444 29.9543C145.121 29.9946 144.83 30.0473 144.57 30.1124C144.418 30.1496 144.261 30.2085 144.1 30.2891C143.939 30.3697 143.802 30.4829 143.691 30.6286C143.582 30.7743 143.528 30.9618 143.528 31.1912C143.528 31.3524 143.568 31.5151 143.649 31.6794C143.729 31.8437 143.864 31.9816 144.053 32.0932C144.246 32.2048 144.508 32.2606 144.839 32.2606ZM150.27 32.6419C149.703 32.6419 149.232 32.5241 148.857 32.2885C148.481 32.0498 148.249 31.7213 148.159 31.3028L148.559 31.2284C148.643 31.5384 148.838 31.7864 149.145 31.9723C149.455 32.1583 149.833 32.2513 150.279 32.2513C150.735 32.2513 151.096 32.1537 151.363 31.9584C151.632 31.7631 151.767 31.4981 151.767 31.1633C151.767 30.9804 151.727 30.8316 151.646 30.7169C151.566 30.5991 151.408 30.4922 151.172 30.3961C150.94 30.3 150.596 30.1899 150.14 30.0659C149.663 29.9357 149.291 29.8102 149.024 29.6893C148.76 29.5653 148.574 29.4274 148.466 29.2755C148.361 29.1205 148.308 28.9314 148.308 28.7082C148.308 28.4416 148.387 28.206 148.545 28.0014C148.703 27.7969 148.922 27.6372 149.201 27.5225C149.48 27.4078 149.802 27.3505 150.168 27.3505C150.537 27.3505 150.868 27.4125 151.163 27.5365C151.46 27.6574 151.699 27.8279 151.879 28.0479C152.062 28.2649 152.167 28.516 152.195 28.8012L151.795 28.8756C151.736 28.5253 151.557 28.2494 151.256 28.0479C150.958 27.8434 150.586 27.7411 150.14 27.7411C149.721 27.7349 149.379 27.8201 149.112 27.9968C148.849 28.1735 148.717 28.4044 148.717 28.6896C148.717 28.8477 148.762 28.9841 148.852 29.0988C148.942 29.2104 149.098 29.3127 149.322 29.4057C149.545 29.4987 149.855 29.5948 150.251 29.694C150.754 29.8211 151.144 29.9497 151.423 30.0799C151.705 30.2101 151.902 30.362 152.014 30.5356C152.128 30.7092 152.186 30.9246 152.186 31.1819C152.186 31.6376 152.015 31.9956 151.674 32.256C151.333 32.5133 150.865 32.6419 150.27 32.6419ZM155.81 32.5117C155.558 32.5675 155.31 32.5877 155.066 32.5722C154.821 32.5598 154.602 32.5024 154.41 32.4001C154.218 32.2947 154.074 32.1366 153.978 31.9258C153.903 31.7616 153.861 31.5957 153.852 31.4283C153.843 31.2578 153.838 31.0641 153.838 30.8471V26.095H154.229V30.8471C154.229 31.0641 154.23 31.2392 154.233 31.3725C154.239 31.5058 154.272 31.6314 154.331 31.7492C154.443 31.9723 154.619 32.1103 154.861 32.163C155.103 32.2126 155.419 32.2048 155.81 32.1397V32.5117ZM152.657 27.8805V27.49H155.81V27.8805H152.657Z" fill="white"/>
</svg>
