<svg width="157" height="38" viewBox="0 0 157 38" fill="none" xmlns="http://www.w3.org/2000/svg">
<path d="M18.9001 1.32861C18.9001 1.32861 11.6509 1.32861 8.95488 1.32861C6.25883 1.32861 2.55263 3.69683 1.80673 8.72929C1.06084 13.7618 1.28621 25.3808 1.80673 27.9711C2.32725 30.5613 4.23112 34.4097 8.95488 35.0017C13.6786 35.5938 56.5053 35.2484 77.3281 35.0017C77.3281 35.0017 77.3281 24.2707 77.3281 22.4206C77.3281 20.5704 76.085 17.9801 72.3555 17.9801C69.3834 17.9801 45.5541 17.9801 26.9803 17.9801M26.9803 17.9801C22.2477 17.9801 17.8563 17.9801 14.238 17.9801C14.3415 16.2533 14.238 13.1697 16.7243 12.7997C19.2106 12.4296 28.8451 12.4296 26.9803 17.9801ZM26.048 16.13H15.7919L16.7243 14.2798L23.7717 15.0199" stroke="#D9D0C7" stroke-width="2.65701"/>
<path d="M92.7954 21.6475C91.7468 21.6475 90.8009 21.4739 89.9577 21.1267C89.1216 20.7795 88.4273 20.2871 87.8746 19.6494C87.329 19.0117 86.9641 18.2536 86.7799 17.375L88.034 17.1624C88.2962 18.1827 88.8559 18.9869 89.7133 19.575C90.5777 20.1631 91.6157 20.4571 92.8273 20.4571C93.6492 20.4571 94.3754 20.326 95.006 20.0639C95.6366 19.8017 96.1291 19.4333 96.4833 18.9586C96.8376 18.4768 97.0147 17.917 97.0147 17.2793C97.0147 16.8188 96.9297 16.4326 96.7597 16.1209C96.5967 15.8091 96.3841 15.554 96.122 15.3557C95.8598 15.1502 95.5799 14.9872 95.2824 14.8668C94.9848 14.7392 94.7049 14.6365 94.4427 14.5585L90.5954 13.4107C90.0852 13.2619 89.6282 13.0777 89.2244 12.8581C88.8276 12.6313 88.491 12.3727 88.2147 12.0822C87.9455 11.7846 87.7364 11.4481 87.5876 11.0726C87.4459 10.697 87.3751 10.279 87.3751 9.81844C87.3751 8.99654 87.5947 8.27738 88.034 7.66095C88.4733 7.04452 89.0756 6.56626 89.8408 6.22616C90.6131 5.87898 91.4988 5.70539 92.4978 5.70539C93.5039 5.71247 94.4073 5.90024 95.208 6.26868C96.0086 6.63003 96.664 7.14372 97.1741 7.80974C97.6914 8.47577 98.0244 9.26578 98.1732 10.1798L96.9084 10.403C96.8092 9.70153 96.5542 9.08865 96.1432 8.56433C95.7394 8.04002 95.2221 7.63261 94.5915 7.34211C93.9609 7.05161 93.2595 6.90636 92.4872 6.90636C91.7432 6.89927 91.0843 7.02327 90.5104 7.27834C89.9435 7.53341 89.4972 7.87705 89.1712 8.30926C88.8453 8.74147 88.6823 9.23036 88.6823 9.77593C88.6823 10.3428 88.8347 10.7962 89.1393 11.1363C89.4511 11.4693 89.8302 11.7315 90.2765 11.9228C90.73 12.1141 91.1622 12.27 91.5732 12.3904L94.6553 13.3044C94.9458 13.3895 95.293 13.5099 95.6968 13.6658C96.1007 13.8217 96.4975 14.0449 96.8872 14.3354C97.2769 14.6188 97.5993 14.9978 97.8543 15.4726C98.1165 15.9402 98.2476 16.5283 98.2476 17.2368C98.2476 17.9241 98.1165 18.5405 97.8543 19.0861C97.5922 19.6317 97.2167 20.0958 96.7278 20.4784C96.2389 20.8539 95.6614 21.1409 94.9954 21.3392C94.3294 21.5447 93.596 21.6475 92.7954 21.6475ZM110.141 21.3286V7.21457H104.657V6.02423H116.847V7.21457H111.363V21.3286H110.141ZM122.602 21.3286L128.022 6.02423H129.542L134.962 21.3286H133.666L128.458 6.66191H129.074L123.899 21.3286H122.602ZM124.844 17.4813V16.3228H132.709V17.4813H124.844ZM144.741 21.3286V14.8668L139.639 6.02423H141.053L145.357 13.4639L149.651 6.02423H151.064L145.973 14.8668V21.3286H144.741Z" fill="white"/>
<path d="M85.9791 32.3286V25.6329H88.5644C88.9394 25.6329 89.2665 25.7104 89.5455 25.8654C89.8245 26.0204 90.0414 26.2297 90.1964 26.4932C90.3514 26.7535 90.4289 27.0418 90.4289 27.358C90.4289 27.7176 90.3328 28.0384 90.1406 28.3205C89.9484 28.5995 89.6912 28.7932 89.3688 28.9017L89.3595 28.6739C89.7935 28.7979 90.1344 29.0149 90.3824 29.3249C90.6304 29.6348 90.7544 30.0099 90.7544 30.4501C90.7544 30.8376 90.6723 31.1724 90.508 31.4545C90.3437 31.7334 90.1127 31.9489 89.8152 32.1008C89.5176 32.2527 89.1719 32.3286 88.7783 32.3286H85.9791ZM86.6673 31.673H88.6109C88.8836 31.673 89.1285 31.6249 89.3455 31.5289C89.5625 31.4297 89.733 31.2902 89.857 31.1104C89.9841 30.9306 90.0476 30.7136 90.0476 30.4594C90.0476 30.2114 89.9903 29.9882 89.8756 29.7898C89.7609 29.5914 89.6044 29.4334 89.406 29.3156C89.2107 29.1947 88.9875 29.1342 88.7364 29.1342H86.6673V31.673ZM86.6673 28.4879H88.5597C88.7736 28.4879 88.9689 28.4399 89.1456 28.3438C89.3223 28.2446 89.4618 28.1097 89.5641 27.9392C89.6695 27.7687 89.7222 27.5719 89.7222 27.3487C89.7222 27.0325 89.6121 26.7752 89.392 26.5768C89.175 26.3785 88.8976 26.2793 88.5597 26.2793H86.6673V28.4879ZM93.8073 32.4681C93.3175 32.4681 92.8928 32.3596 92.5332 32.1426C92.1768 31.9256 91.8993 31.6203 91.7009 31.2266C91.5025 30.8329 91.4033 30.3711 91.4033 29.841C91.4033 29.2923 91.501 28.818 91.6963 28.4182C91.8916 28.0183 92.1659 27.7098 92.5193 27.4929C92.8758 27.2759 93.2958 27.1674 93.7794 27.1674C94.2753 27.1674 94.6985 27.2821 95.0488 27.5115C95.399 27.7377 95.6641 28.0632 95.8439 28.4879C96.0237 28.9126 96.1058 29.4194 96.0903 30.0084H95.3928V29.7666C95.3804 29.1156 95.2394 28.6243 94.9697 28.2926C94.7031 27.9609 94.3125 27.7951 93.798 27.7951C93.2586 27.7951 92.8448 27.9702 92.5565 28.3205C92.2713 28.6708 92.1287 29.1699 92.1287 29.8177C92.1287 30.4501 92.2713 30.9414 92.5565 31.2917C92.8448 31.6389 93.2524 31.8125 93.7794 31.8125C94.139 31.8125 94.452 31.7303 94.7186 31.5661C94.9883 31.3987 95.2007 31.1584 95.3556 30.8453L95.9927 31.0918C95.7943 31.5289 95.5013 31.8683 95.1139 32.1101C94.7295 32.3488 94.2939 32.4681 93.8073 32.4681ZM91.8869 30.0084V29.4365H95.723V30.0084H91.8869ZM99.0704 32.4681C98.6024 32.4681 98.2025 32.3519 97.8708 32.1194C97.5391 31.8838 97.2849 31.5661 97.1082 31.1662C96.9316 30.7663 96.8432 30.3153 96.8432 29.8131C96.8432 29.314 96.93 28.8645 97.1036 28.4647C97.2803 28.0648 97.5329 27.7486 97.8615 27.5161C98.1901 27.2836 98.5838 27.1674 99.0425 27.1674C99.5137 27.1674 99.9105 27.2821 100.233 27.5115C100.555 27.7408 100.799 28.0555 100.963 28.4554C101.13 28.8521 101.214 29.3047 101.214 29.8131C101.214 30.3122 101.132 30.7632 100.968 31.1662C100.803 31.5661 100.561 31.8838 100.242 32.1194C99.9229 32.3519 99.5323 32.4681 99.0704 32.4681ZM99.1402 31.8311C99.4967 31.8311 99.7912 31.7443 100.024 31.5707C100.256 31.3971 100.43 31.1584 100.544 30.8546C100.659 30.5478 100.716 30.2006 100.716 29.8131C100.716 29.4194 100.659 29.0722 100.544 28.7715C100.43 28.4678 100.256 28.2306 100.024 28.0601C99.7943 27.8896 99.5044 27.8044 99.1541 27.8044C98.7946 27.8044 98.497 27.8927 98.2614 28.0694C98.0258 28.2461 97.8507 28.4864 97.736 28.7901C97.6244 29.0939 97.5686 29.4349 97.5686 29.8131C97.5686 30.1944 97.6259 30.5385 97.7406 30.8453C97.8584 31.1491 98.0335 31.3894 98.266 31.5661C98.4985 31.7427 98.7899 31.8311 99.1402 31.8311ZM100.716 32.3286V28.5484H100.642V25.6329H101.33V32.3286H100.716ZM106.649 32.4681C106.277 32.4681 105.932 32.4154 105.612 32.31C105.296 32.2015 105.031 32.0326 104.817 31.8032C104.65 31.6234 104.526 31.4235 104.445 31.2034C104.365 30.9802 104.32 30.7446 104.31 30.4966C104.307 30.261 104.341 30.027 104.413 29.7945C104.484 29.562 104.596 29.3559 104.748 29.1761C104.837 29.0645 104.938 28.9715 105.05 28.8971C105.164 28.8227 105.282 28.7591 105.403 28.7064C105.171 28.4647 104.992 28.2415 104.868 28.0369C104.748 27.8292 104.687 27.575 104.687 27.2743C104.687 26.9302 104.774 26.6156 104.947 26.3304C105.124 26.0452 105.367 25.8329 105.677 25.6934C105.836 25.6221 105.997 25.5725 106.161 25.5446C106.328 25.5136 106.494 25.4981 106.659 25.4981C106.91 25.4981 107.156 25.5337 107.398 25.605C107.64 25.6732 107.846 25.7817 108.016 25.9305C108.131 26.0204 108.232 26.1274 108.319 26.2514C108.405 26.3723 108.474 26.4994 108.523 26.6326L107.863 26.8279C107.798 26.6605 107.689 26.5195 107.537 26.4048C107.42 26.3118 107.283 26.2467 107.128 26.2095C106.976 26.1723 106.823 26.1537 106.668 26.1537C106.404 26.1537 106.166 26.2049 105.952 26.3072C105.766 26.4002 105.626 26.5288 105.533 26.6931C105.44 26.8574 105.394 27.0496 105.394 27.2697C105.394 27.4588 105.425 27.6153 105.487 27.7393C105.549 27.8602 105.639 27.9919 105.757 28.1345C105.825 28.2089 105.901 28.2849 105.984 28.3624C106.068 28.4368 106.153 28.5143 106.24 28.5948L108.36 30.5617C108.373 30.4749 108.381 30.3912 108.384 30.3106C108.387 30.2269 108.388 30.1448 108.388 30.0642L108.384 29.0831H109.03V30.1107C109.03 30.3556 109.021 30.5555 109.002 30.7105C108.983 30.8655 108.959 30.9941 108.928 31.0964L109.793 31.8915L109.341 32.3705L108.602 31.673C108.5 31.8063 108.37 31.9256 108.212 32.031C108.057 32.1364 107.902 32.2186 107.747 32.2775C107.579 32.3519 107.403 32.4015 107.217 32.4263C107.031 32.4542 106.841 32.4681 106.649 32.4681ZM106.659 31.8078C106.835 31.8078 106.995 31.797 107.138 31.7753C107.28 31.7536 107.416 31.7086 107.547 31.6404C107.711 31.5537 107.833 31.4731 107.914 31.3987C107.995 31.3212 108.06 31.253 108.109 31.1941L105.933 29.204C105.803 29.2443 105.681 29.3001 105.566 29.3714C105.454 29.4396 105.358 29.5217 105.278 29.6178C105.188 29.7294 105.121 29.858 105.078 30.0037C105.034 30.1494 105.013 30.3029 105.013 30.4641C105.019 30.6345 105.047 30.7926 105.096 30.9383C105.149 31.0809 105.226 31.208 105.329 31.3196C105.474 31.4901 105.67 31.6141 105.915 31.6916C106.16 31.7691 106.407 31.8078 106.659 31.8078ZM112.416 32.3286V25.6329H115.001C115.376 25.6329 115.703 25.7104 115.982 25.8654C116.261 26.0204 116.478 26.2297 116.633 26.4932C116.788 26.7535 116.865 27.0418 116.865 27.358C116.865 27.7176 116.769 28.0384 116.577 28.3205C116.385 28.5995 116.128 28.7932 115.805 28.9017L115.796 28.6739C116.23 28.7979 116.571 29.0149 116.819 29.3249C117.067 29.6348 117.191 30.0099 117.191 30.4501C117.191 30.8376 117.109 31.1724 116.944 31.4545C116.78 31.7334 116.549 31.9489 116.252 32.1008C115.954 32.2527 115.608 32.3286 115.215 32.3286H112.416ZM113.104 31.673H115.047C115.32 31.673 115.565 31.6249 115.782 31.5289C115.999 31.4297 116.169 31.2902 116.293 31.1104C116.421 30.9306 116.484 30.7136 116.484 30.4594C116.484 30.2114 116.427 29.9882 116.312 29.7898C116.197 29.5914 116.041 29.4334 115.842 29.3156C115.647 29.1947 115.424 29.1342 115.173 29.1342H113.104V31.673ZM113.104 28.4879H114.996C115.21 28.4879 115.405 28.4399 115.582 28.3438C115.759 28.2446 115.898 28.1097 116.001 27.9392C116.106 27.7687 116.159 27.5719 116.159 27.3487C116.159 27.0325 116.049 26.7752 115.829 26.5768C115.612 26.3785 115.334 26.2793 114.996 26.2793H113.104V28.4879ZM118.119 32.3286V27.3069H118.733V28.5158L118.612 28.3577C118.667 28.2089 118.74 28.0725 118.83 27.9485C118.92 27.8214 119.018 27.7176 119.123 27.637C119.253 27.5223 119.405 27.4355 119.579 27.3766C119.752 27.3146 119.928 27.279 120.104 27.2697C120.281 27.2573 120.442 27.2697 120.588 27.3069V27.9485C120.405 27.902 120.205 27.8912 119.988 27.916C119.771 27.9408 119.571 28.0276 119.388 28.1764C119.221 28.3066 119.095 28.4631 119.012 28.646C118.928 28.8258 118.872 29.018 118.844 29.2226C118.816 29.4241 118.802 29.624 118.802 29.8224V32.3286H118.119ZM123.504 32.4681C123.014 32.4681 122.59 32.3596 122.23 32.1426C121.874 31.9256 121.596 31.6203 121.398 31.2266C121.199 30.8329 121.1 30.3711 121.1 29.841C121.1 29.2923 121.198 28.818 121.393 28.4182C121.588 28.0183 121.863 27.7098 122.216 27.4929C122.573 27.2759 122.993 27.1674 123.476 27.1674C123.972 27.1674 124.395 27.2821 124.746 27.5115C125.096 27.7377 125.361 28.0632 125.541 28.4879C125.72 28.9126 125.803 29.4194 125.787 30.0084H125.09V29.7666C125.077 29.1156 124.936 28.6243 124.666 28.2926C124.4 27.9609 124.009 27.7951 123.495 27.7951C122.955 27.7951 122.542 27.9702 122.253 28.3205C121.968 28.6708 121.825 29.1699 121.825 29.8177C121.825 30.4501 121.968 30.9414 122.253 31.2917C122.542 31.6389 122.949 31.8125 123.476 31.8125C123.836 31.8125 124.149 31.7303 124.415 31.5661C124.685 31.3987 124.897 31.1584 125.052 30.8453L125.689 31.0918C125.491 31.5289 125.198 31.8683 124.811 32.1101C124.426 32.3488 123.991 32.4681 123.504 32.4681ZM121.584 30.0084V29.4365H125.42V30.0084H121.584ZM128.165 32.4681C127.787 32.4681 127.469 32.3999 127.212 32.2635C126.958 32.1271 126.767 31.9458 126.64 31.7195C126.513 31.4932 126.449 31.2468 126.449 30.9802C126.449 30.7074 126.503 30.4749 126.612 30.2827C126.723 30.0874 126.874 29.9278 127.063 29.8038C127.255 29.6798 127.477 29.5852 127.728 29.5202C127.982 29.4582 128.263 29.4039 128.569 29.3574C128.879 29.3078 129.182 29.266 129.476 29.2319C129.774 29.1947 130.034 29.159 130.257 29.1249L130.016 29.2737C130.025 28.7777 129.929 28.4104 129.727 28.1717C129.526 27.933 129.175 27.8137 128.676 27.8137C128.332 27.8137 128.041 27.8912 127.802 28.0462C127.567 28.2012 127.401 28.4461 127.305 28.7808L126.64 28.5855C126.754 28.1361 126.985 27.7873 127.333 27.5394C127.68 27.2914 128.131 27.1674 128.686 27.1674C129.144 27.1674 129.534 27.2542 129.853 27.4278C130.175 27.5982 130.403 27.8462 130.536 28.1717C130.598 28.3174 130.639 28.4802 130.657 28.6599C130.676 28.8397 130.685 29.0226 130.685 29.2086V32.3286H130.076V31.0685L130.253 31.1429C130.082 31.5738 129.817 31.9024 129.458 32.1287C129.098 32.355 128.667 32.4681 128.165 32.4681ZM128.244 31.8776C128.563 31.8776 128.842 31.8202 129.081 31.7055C129.32 31.5908 129.512 31.4343 129.658 31.2359C129.803 31.0344 129.898 30.8081 129.941 30.5571C129.978 30.3959 129.998 30.2192 130.002 30.027C130.005 29.8317 130.006 29.686 130.006 29.5899L130.267 29.7247C130.034 29.7557 129.781 29.7867 129.509 29.8177C129.239 29.8487 128.972 29.8844 128.709 29.9247C128.449 29.965 128.213 30.013 128.002 30.0688C127.86 30.1091 127.722 30.1665 127.588 30.2409C127.455 30.3122 127.345 30.4083 127.258 30.5292C127.175 30.65 127.133 30.8004 127.133 30.9802C127.133 31.1259 127.168 31.2669 127.24 31.4033C127.314 31.5397 127.432 31.6528 127.593 31.7427C127.757 31.8326 127.974 31.8776 128.244 31.8776ZM131.891 32.3286L131.896 25.6329H132.584V29.7247L134.825 27.3069H135.736L133.383 29.8177L136.043 32.3286H135.048L132.584 29.9107V32.3286H131.891ZM137.007 32.3286V26.9349C137.007 26.8047 137.013 26.676 137.025 26.5489C137.041 26.4219 137.07 26.301 137.113 26.1863C137.157 26.0685 137.225 25.96 137.318 25.8608C137.42 25.7492 137.532 25.6686 137.653 25.619C137.774 25.5663 137.899 25.5322 138.029 25.5167C138.163 25.5012 138.293 25.4935 138.42 25.4935H139.062V26.07H138.467C138.206 26.07 138.011 26.1336 137.881 26.2607C137.754 26.3878 137.69 26.5877 137.69 26.8605V32.3286H137.007ZM136.137 27.8927V27.3069H139.062V27.8927H136.137ZM141.106 32.4681C140.728 32.4681 140.41 32.3999 140.153 32.2635C139.899 32.1271 139.708 31.9458 139.581 31.7195C139.454 31.4932 139.39 31.2468 139.39 30.9802C139.39 30.7074 139.445 30.4749 139.553 30.2827C139.665 30.0874 139.815 29.9278 140.004 29.8038C140.196 29.6798 140.418 29.5852 140.669 29.5202C140.923 29.4582 141.204 29.4039 141.511 29.3574C141.821 29.3078 142.123 29.266 142.417 29.2319C142.715 29.1947 142.975 29.159 143.199 29.1249L142.957 29.2737C142.966 28.7777 142.87 28.4104 142.668 28.1717C142.467 27.933 142.117 27.8137 141.618 27.8137C141.274 27.8137 140.982 27.8912 140.743 28.0462C140.508 28.2012 140.342 28.4461 140.246 28.7808L139.581 28.5855C139.696 28.1361 139.927 27.7873 140.274 27.5394C140.621 27.2914 141.072 27.1674 141.627 27.1674C142.086 27.1674 142.475 27.2542 142.794 27.4278C143.116 27.5982 143.344 27.8462 143.478 28.1717C143.54 28.3174 143.58 28.4802 143.598 28.6599C143.617 28.8397 143.626 29.0226 143.626 29.2086V32.3286H143.017V31.0685L143.194 31.1429C143.023 31.5738 142.758 31.9024 142.399 32.1287C142.039 32.355 141.608 32.4681 141.106 32.4681ZM141.185 31.8776C141.505 31.8776 141.783 31.8202 142.022 31.7055C142.261 31.5908 142.453 31.4343 142.599 31.2359C142.744 31.0344 142.839 30.8081 142.882 30.5571C142.92 30.3959 142.94 30.2192 142.943 30.027C142.946 29.8317 142.947 29.686 142.947 29.5899L143.208 29.7247C142.975 29.7557 142.723 29.7867 142.45 29.8177C142.18 29.8487 141.914 29.8844 141.65 29.9247C141.39 29.965 141.154 30.013 140.943 30.0688C140.801 30.1091 140.663 30.1665 140.53 30.2409C140.396 30.3122 140.286 30.4083 140.199 30.5292C140.116 30.65 140.074 30.8004 140.074 30.9802C140.074 31.1259 140.11 31.2669 140.181 31.4033C140.255 31.5397 140.373 31.6528 140.534 31.7427C140.699 31.8326 140.916 31.8776 141.185 31.8776ZM146.711 32.4635C146.122 32.4635 145.637 32.3364 145.255 32.0822C144.877 31.828 144.645 31.4746 144.558 31.022L145.255 30.9058C145.33 31.191 145.499 31.4188 145.762 31.5893C146.029 31.7567 146.357 31.8404 146.748 31.8404C147.129 31.8404 147.43 31.7613 147.65 31.6032C147.87 31.4421 147.98 31.2235 147.98 30.9476C147.98 30.7926 147.944 30.6671 147.873 30.571C147.805 30.4718 147.664 30.3804 147.45 30.2967C147.236 30.213 146.917 30.1138 146.492 29.9991C146.036 29.8751 145.68 29.7511 145.423 29.6271C145.165 29.5031 144.983 29.3605 144.874 29.1993C144.766 29.035 144.711 28.8351 144.711 28.5995C144.711 28.3143 144.792 28.0648 144.953 27.8509C145.114 27.6339 145.337 27.4665 145.623 27.3487C145.908 27.2278 146.239 27.1674 146.618 27.1674C146.996 27.1674 147.334 27.2294 147.631 27.3534C147.932 27.4743 148.174 27.6447 148.357 27.8648C148.54 28.0849 148.648 28.3407 148.682 28.632L147.985 28.7576C147.938 28.4631 147.791 28.2306 147.543 28.0601C147.298 27.8865 146.987 27.7966 146.608 27.7904C146.252 27.7811 145.962 27.8493 145.739 27.995C145.516 28.1376 145.404 28.3283 145.404 28.5669C145.404 28.7002 145.444 28.8149 145.525 28.911C145.606 29.004 145.751 29.0924 145.962 29.1761C146.176 29.2598 146.48 29.3512 146.873 29.4504C147.335 29.5682 147.698 29.6922 147.961 29.8224C148.225 29.9526 148.412 30.106 148.524 30.2827C148.636 30.4594 148.691 30.6779 148.691 30.9383C148.691 31.4126 148.515 31.7861 148.161 32.0589C147.811 32.3286 147.328 32.4635 146.711 32.4635ZM152.457 32.3286C152.175 32.3875 151.896 32.4108 151.62 32.3984C151.347 32.386 151.102 32.3271 150.885 32.2217C150.671 32.1163 150.509 31.952 150.397 31.7288C150.307 31.5428 150.257 31.3553 150.248 31.1662C150.242 30.974 150.239 30.7554 150.239 30.5106V25.9119H150.918V30.4827C150.918 30.6934 150.919 30.8701 150.922 31.0127C150.929 31.1522 150.961 31.2762 151.02 31.3847C151.132 31.5924 151.308 31.7164 151.55 31.7567C151.795 31.797 152.097 31.7877 152.457 31.7288V32.3286ZM149.165 27.8927V27.3069H152.457V27.8927H149.165Z" fill="white"/>
</svg>
